Poster: 
http://img515.imageshack.us/img515/1349/looper2012moviebannerpo.jpg

Info:
Format version : Version 2
File size : 2.40 GiB
Duration : 1h 58mn
Overall bit rate : 2 888 Kbps
Encoded date : UTC 2012-11-01 15:08:21
Writing application : mkvmerge v5.6.0 ('Kenya Kane') built on May 27 2012 16:44:04
Writing library : libebml v1.2.3 + libmatroska v1.3.0

Video
ID : 1
Format : AVC
Format/Info : Advanced Video Codec
Format profile : High@L4.1
Format settings, CABAC : Yes
Format settings, ReFrames : 4 frames
Codec ID : V_MPEG4/ISO/AVC
Duration : 1h 58mn
Bit rate : 2 750 Kbps
Width : 1 280 pixels
Height : 544 pixels
Display aspect ratio : 2.35:1
Frame rate : 23.976 fps
Color space : YUV
Chroma subsampling : 4:2:0
Bit depth : 8 bits
Scan type : Progressive
Bits/(Pixel*Frame) : 0.165
Stream size : 2.24 GiB (94%)
Writing library : x264 core 125 r2200bm 999b753
Default : Yes
Forced : No

Audio
ID : 2
Format : AC-3
Format/Info : Audio Coding 3
Mode extension : CM (complete main)
Format settings, Endianness : Big
Codec ID : A_AC3
Duration : 1h 58mn
Bit rate mode : Constant
Bit rate : 128 Kbps
Channel(s) : 6 channels
Channel positions : Front: L C R, Side: L R, LFE
Sampling rate : 44.1 KHz
Bit depth : 16 bits
Compression mode : Lossy
Stream size : 109 MiB (4%)
Language : English
Default : Yes
Forced : No



SCREENS: 
http://img40.imageshack.us/img40/147/aaamkvmuxedmkv002013379.jpg 
http://img707.imageshack.us/img707/7638/aaamkvmuxedmkv005335796.jpg 
http://img12.imageshack.us/img12/4276/aaamkvmuxedmkv004907611.jpg 
http://img62.imageshack.us/img62/4638/aaamkvmuxedmkv003947594.jpg